<svg xmlns="http://www.w3.org/2000/svg" width="900" height="560" viewBox="0 0 900 560" role="img" aria-labelledby="t d"><title id="t">楽章一覧</title><desc id="d">今日の楽章と指揮カードを選ぶ画面</desc><rect width="900" height="560" fill="#101728"/><rect x="210" y="28" width="480" height="504" rx="38" fill="#fbf5e7"/><text x="250" y="82" font-size="28" font-family="sans-serif" fill="#192039">20s Orchestra</text><text x="250" y="116" font-size="16" font-family="sans-serif" fill="#6b6370">今日の楽章</text><rect x="250" y="140" width="400" height="126" rx="18" fill="#d9c8ee"/><text x="278" y="182" font-size="22" font-family="sans-serif">Morning Fanfare</text><text x="278" y="216" font-size="17" font-family="sans-serif">弦 + 木管　20秒</text><rect x="278" y="232" width="120" height="28" rx="14" fill="#34245d"/><text x="307" y="252" font-size="14" font-family="sans-serif" fill="#fff">指揮する</text><text x="250" y="320" font-size="18" font-family="sans-serif">指揮カード</text><rect x="250" y="344" width="118" height="118" rx="15" fill="#ef9b78"/><path d="M270 430 C300 350 330 450 354 365" fill="none" stroke="#fff" stroke-width="6"/><rect x="390" y="344" width="118" height="118" rx="15" fill="#6da9b7"/><path d="M410 380 C450 450 474 355 494 425" fill="none" stroke="#fff" stroke-width="6"/><rect x="530" y="344" width="118" height="118" rx="15" fill="#b9a357"/><path d="M550 420 C580 350 610 365 632 430" fill="none" stroke="#fff" stroke-width="6"/></svg>
