<svg xmlns="http://www.w3.org/2000/svg" width="900" height="560" viewBox="0 0 900 560" role="img" aria-labelledby="t d"><title id="t">季節の小庭一覧</title><desc id="d">芒種のウィジェットと集めた季節標本を示す画面</desc><rect width="900" height="560" fill="#f1eee5"/><rect x="92" y="50" width="300" height="170" rx="32" fill="#243d32"/><circle cx="320" cy="92" r="26" fill="#ffe7a1"/><path d="M110 190 Q180 120 245 190 T380 190 V220 H110Z" fill="#6b9273"/><path d="M145 190 Q190 145 235 190 T325 190" fill="none" stroke="#d7d08b" stroke-width="12"/><text x="120" y="92" font-family="serif" font-size="28" fill="#fff">芒種</text><text x="120" y="125" font-family="sans-serif" font-size="15" fill="#d9e5df">雨の前、葉が少し濃くなる</text><rect x="430" y="28" width="380" height="504" rx="28" fill="#fff" stroke="#665d50" stroke-width="3"/><text x="465" y="76" font-family="sans-serif" font-size="24" font-weight="700" fill="#3c493f">季節の標本帳</text><text x="465" y="110" font-family="sans-serif" font-size="15" fill="#7a756d">2026年 / 8枚</text><g font-family="sans-serif"><rect x="465" y="140" width="145" height="130" rx="18" fill="#f6d8cb"/><text x="488" y="180" font-size="18" fill="#60483f">清明</text><path d="M488 238 Q530 170 580 238" fill="#7aa07c"/><rect x="630" y="140" width="145" height="130" rx="18" fill="#dbe9d8"/><text x="653" y="180" font-size="18" fill="#3c563f">穀雨</text><circle cx="705" cy="222" r="32" fill="#92b7cc"/><rect x="465" y="290" width="145" height="130" rx="18" fill="#e8e1c3"/><text x="488" y="330" font-size="18" fill="#5b563f">立夏</text><path d="M485 388 L535 330 L590 388" fill="#83a56d"/><rect x="630" y="290" width="145" height="130" rx="18" fill="#d9e8de" stroke="#5e816b" stroke-width="3"/><text x="653" y="330" font-size="18" fill="#3c563f">芒種</text><path d="M650 388 Q700 315 755 388" fill="#6b9273"/><text x="465" y="474" font-size="16" fill="#7a756d">次の庭: 夏至まで 2日</text></g></svg>
