<svg xmlns="http://www.w3.org/2000/svg" viewBox="0 0 1200 675" role="img" aria-labelledby="title desc">
<title id="title">Google: S2 GeometryとMaps/BigQuery GISの役割の全体像</title><desc id="desc">検索、地図、クラウド、広告、Androidなどで地理情報を大規模に扱う企業</desc>
<rect width="1200" height="675" fill="#fff"/><rect x="0.5" y="0.5" width="1199" height="674" fill="none" stroke="#111" stroke-width="1"/>
<text x="600" y="72" text-anchor="middle" font-size="24" letter-spacing="8" font-family="Arial, sans-serif" fill="#687386">CONTEXT</text>
<text x="86" y="145" font-size="42" font-family="Arial, sans-serif" font-weight="700" fill="#111">Google: S2 Geometryと</text>
<text x="86" y="210.10000000000002" font-size="42" font-family="Arial, sans-serif" font-weight="700" fill="#111">Maps/BigQuery GISの役…</text>
<g transform="translate(110,335)"><circle cx="0" cy="-7" r="6" fill="#111"/><text x="22" y="0" font-size="23" font-family="Arial, sans-serif" fill="#111">何をしている企業か</text></g>
<g transform="translate(110,399)"><circle cx="0" cy="-7" r="6" fill="#111"/><text x="22" y="0" font-size="23" font-family="Arial, sans-serif" fill="#111">位置情報で解いている課題</text></g>
<g transform="translate(110,463)"><circle cx="0" cy="-7" r="6" fill="#111"/><text x="22" y="0" font-size="23" font-family="Arial, sans-serif" fill="#111">公開されている技術情報</text></g>
<circle cx="820" cy="305" r="125" fill="#f0f3f7" stroke="#111" stroke-width="2"/><circle cx="820" cy="305" r="47" fill="#111"/><path d="M690 305H520M950 305h110M820 175V96M820 435v88" stroke="#111" stroke-width="2"/><rect x="518" y="243" width="150" height="124" fill="#fff" stroke="#111"/><rect x="972" y="250" width="118" height="98" fill="#fff" stroke="#111"/><rect x="750" y="78" width="140" height="72" fill="#fff" stroke="#111"/><rect x="753" y="462" width="134" height="72" fill="#fff" stroke="#111"/>
<text x="600" y="604" text-anchor="middle" font-size="25" font-family="Arial, sans-serif" fill="#333">検索、地図、クラウド、広告、Androidなどで地理情報を大規模に扱う企業</text>
</svg>
