<svg xmlns="http://www.w3.org/2000/svg" viewBox="0 0 960 540" role="img" aria-labelledby="t d"><title id="t">海洋ごみ回収案件の詳細画面</title><desc id="d">回収写真、重量、搬入先、危険物確認、処理伝票を表示する画面</desc><rect width="960" height="540" fill="#eaf1f3"/><rect x="230" y="24" width="500" height="492" rx="32" fill="#fffdf9" stroke="#274c59" stroke-width="3"/><rect x="230" y="24" width="500" height="58" rx="30" fill="#274c59"/><text x="264" y="60" font-family="sans-serif" font-size="19" font-weight="700" fill="#fff">回収案件 #108</text><rect x="266" y="108" width="190" height="120" rx="12" fill="#dce8eb"/><path d="M280 190 Q350 130 440 190" stroke="#4f8192" stroke-width="13" fill="none"/><circle cx="328" cy="175" r="12" fill="#9a6e4c"/><circle cx="380" cy="180" r="15" fill="#7f8a72"/><text x="480" y="128" font-family="sans-serif" font-size="14" fill="#60777f">概算重量</text><text x="480" y="154" font-family="sans-serif" font-size="19" font-weight="700">85 kg</text><text x="480" y="186" font-family="sans-serif" font-size="14" fill="#60777f">搬入先</text><text x="480" y="212" font-family="sans-serif" font-size="19" font-weight="700">B港 / 6月21日</text><text x="266" y="270" font-family="sans-serif" font-size="18" font-weight="700">確認項目</text><rect x="266" y="286" width="428" height="42" rx="10" fill="#edf5f6"/><text x="286" y="312" font-family="sans-serif" font-size="14">✓ 漁具　✓ プラスチック　□ 危険物疑い</text><text x="266" y="364" font-family="sans-serif" font-size="18" font-weight="700">処理履歴</text><text x="286" y="400" font-family="sans-serif" font-size="14">6/19 回収・写真登録</text><text x="286" y="430" font-family="sans-serif" font-size="14">6/21 搬入予定 / B港担当が確認</text><rect x="266" y="458" width="205" height="42" rx="12" fill="#e1eaec"/><text x="368" y="485" text-anchor="middle" font-family="sans-serif" font-size="14">伝票を添付</text><rect x="489" y="458" width="205" height="42" rx="12" fill="#274c59"/><text x="591" y="485" text-anchor="middle" font-family="sans-serif" font-size="14" font-weight="700" fill="#fff">搬入完了にする</text></svg>
