<svg xmlns="http://www.w3.org/2000/svg" viewBox="0 0 960 540" role="img" aria-labelledby="t d"><title id="t">海洋ごみ回収ダッシュボード</title><desc id="d">港の受入枠、保管容量、未処理量、引取予定を表示する画面</desc><rect width="960" height="540" fill="#eaf1f3"/><rect x="40" y="30" width="880" height="480" rx="24" fill="#fffdf9" stroke="#b4c7cc"/><rect x="40" y="30" width="880" height="62" rx="24" fill="#274c59"/><text x="70" y="69" font-family="sans-serif" font-size="22" font-weight="700" fill="#fff">海洋ごみ回収台帳</text><text x="70" y="130" font-family="sans-serif" font-size="25" font-weight="700" fill="#203e48">港別の受入状況</text><g font-family="sans-serif"><rect x="70" y="158" width="250" height="120" rx="16" fill="#edf5f6"/><text x="92" y="190" font-size="18" font-weight="700">A港</text><text x="92" y="220" font-size="14" fill="#60777f">保管 62% / 次回引取 6/24</text><rect x="92" y="240" width="200" height="14" rx="7" fill="#d3e0e3"/><rect x="92" y="240" width="124" height="14" rx="7" fill="#4f8192"/><rect x="338" y="158" width="250" height="120" rx="16" fill="#fff4e8"/><text x="360" y="190" font-size="18" font-weight="700">B港</text><text x="360" y="220" font-size="14" fill="#77695d">保管 88% / 搬入制限中</text><rect x="360" y="240" width="200" height="14" rx="7" fill="#eadccc"/><rect x="360" y="240" width="176" height="14" rx="7" fill="#c27b46"/><rect x="606" y="158" width="284" height="120" rx="16" fill="#edf5f6"/><text x="628" y="190" font-size="18" font-weight="700">C港</text><text x="628" y="220" font-size="14" fill="#60777f">保管 34% / 受入可能</text><rect x="628" y="240" width="220" height="14" rx="7" fill="#d3e0e3"/><rect x="628" y="240" width="75" height="14" rx="7" fill="#4f8192"/></g><rect x="70" y="310" width="820" height="48" rx="10" fill="#274c59"/><text x="92" y="340" font-family="sans-serif" font-size="14" fill="#fff">案件　　回収量　　搬入先　　状態　　　　　　引取予定</text><text x="92" y="392" font-family="sans-serif" font-size="15">#108　　85kg　　 B港　　 搬入待ち　　　　 6/21</text><line x1="70" y1="410" x2="890" y2="410" stroke="#d6e1e3"/><text x="92" y="445" font-family="sans-serif" font-size="15">#107　　42kg　　 A港　　 保管中　　　　　 6/24</text></svg>
