<svg xmlns="http://www.w3.org/2000/svg" width="900" height="560" viewBox="0 0 900 560" role="img" aria-labelledby="t d"><title id="t">モーション葉書一覧</title><desc id="d">月ごとの一筆作品と今日の作成ボタンを示す画面</desc><rect width="900" height="560" fill="#f3ecf5"/><rect x="170" y="26" width="560" height="508" rx="28" fill="#fff" stroke="#51395d" stroke-width="4"/><text x="205" y="74" font-family="sans-serif" font-size="25" font-weight="700" fill="#51395d">6月のモーション葉書</text><text x="205" y="105" font-family="sans-serif" font-size="15" fill="#7b6b82">12枚 / 今日の一筆はまだ</text><g fill="none" stroke-linecap="round"><rect x="205" y="132" width="145" height="120" rx="18" fill="#f7d8cd" stroke="none"/><path d="M228 214 Q260 145 322 204" stroke="#b94354" stroke-width="12"/><rect x="370" y="132" width="145" height="120" rx="18" fill="#d9e8f5" stroke="none"/><path d="M395 180 Q440 235 490 166" stroke="#366fa0" stroke-width="10"/><rect x="535" y="132" width="160" height="120" rx="18" fill="#e4e4c6" stroke="none"/><path d="M560 215 C590 150 650 245 676 170" stroke="#758240" stroke-width="11"/><rect x="205" y="272" width="145" height="120" rx="18" fill="#eadcf3" stroke="none"/><path d="M230 330 C260 290 300 380 326 320" stroke="#8050a1" stroke-width="10"/><rect x="370" y="272" width="145" height="120" rx="18" fill="#f3e2b9" stroke="none"/><path d="M395 360 Q445 280 490 350" stroke="#c0732b" stroke-width="12"/><rect x="535" y="272" width="160" height="120" rx="18" fill="#d6eee5" stroke="none"/><path d="M560 350 Q600 295 673 355" stroke="#38806a" stroke-width="9"/></g><rect x="205" y="420" width="490" height="62" rx="18" fill="#51395d"/><text x="366" y="459" font-family="sans-serif" font-size="19" font-weight="700" fill="#fff">今日の一筆を描く</text><text x="205" y="510" font-family="sans-serif" font-size="14" fill="#8a7a90">月末に12枚を一つのリールへまとめます</text></svg>
