<svg xmlns="http://www.w3.org/2000/svg" width="900" height="560" viewBox="0 0 900 560" role="img" aria-labelledby="t d"><title id="t">復帰状況一覧</title><desc id="d">選手の離脱、受診、復帰段階を示すクラブ管理画面</desc><rect width="900" height="560" fill="#edf1f7"/><rect x="150" y="28" width="600" height="504" rx="24" fill="#fff" stroke="#203b63" stroke-width="4"/><text x="185" y="76" font-family="sans-serif" font-size="25" font-weight="700" fill="#203b63">Return Steps</text><rect x="185" y="98" width="530" height="52" rx="14" fill="#e3ebf7"/><text x="205" y="131" font-family="sans-serif" font-size="17" fill="#203b63">参加不可 3　許可待ち 1　段階復帰 2</text><g font-family="sans-serif"><text x="185" y="188" font-size="16" fill="#667487">選手</text><text x="390" y="188" font-size="16" fill="#667487">状態</text><text x="555" y="188" font-size="16" fill="#667487">次の確認</text><rect x="185" y="208" width="530" height="76" rx="14" fill="#fff0ef"/><text x="205" y="240" font-size="18" font-weight="700" fill="#26364c">A. Sato</text><text x="390" y="240" font-size="16" fill="#a43832">受診確認待ち</text><text x="555" y="240" font-size="16" fill="#26364c">本日 18:00</text><text x="205" y="266" font-size="14" fill="#667487">安全責任者: 田中</text><rect x="185" y="300" width="530" height="76" rx="14" fill="#fff8e5"/><text x="205" y="332" font-size="18" font-weight="700" fill="#26364c">K. Mori</text><text x="390" y="332" font-size="16" fill="#8a6714">段階2</text><text x="555" y="332" font-size="16" fill="#26364c">24時間後</text><text x="205" y="358" font-size="14" fill="#667487">接触練習は禁止</text><rect x="185" y="392" width="530" height="76" rx="14" fill="#eef7ef"/><text x="205" y="424" font-size="18" font-weight="700" fill="#26364c">M. Ito</text><text x="390" y="424" font-size="16" fill="#287141">医療許可確認済</text><text x="555" y="424" font-size="16" fill="#26364c">復帰面談</text><text x="205" y="450" font-size="14" fill="#667487">確認者: 鈴木</text></g></svg>
