<svg xmlns="http://www.w3.org/2000/svg" viewBox="0 0 960 540" role="img" aria-labelledby="t d"><title id="t">農業用水路点検ダッシュボード</title><desc id="d">水路区間の異常、作業予定、補修状況を表示する画面</desc><rect width="960" height="540" fill="#eef2e9"/><rect x="40" y="30" width="880" height="480" rx="24" fill="#fffdf9" stroke="#b9c4ae"/><rect x="40" y="30" width="880" height="62" rx="24" fill="#2f4935"/><text x="70" y="69" font-family="sans-serif" font-size="22" font-weight="700" fill="#fff">水路メンテナンス</text><text x="70" y="130" font-family="sans-serif" font-size="25" font-weight="700" fill="#263a2a">区間点検一覧</text><rect x="70" y="155" width="520" height="310" rx="16" fill="#e4eadf"/><path d="M100 210 C220 170 310 300 430 230 S520 260 560 190" stroke="#77a1b4" stroke-width="20" fill="none"/><circle cx="230" cy="224" r="14" fill="#a8482b"/><circle cx="430" cy="230" r="14" fill="#d49c35"/><rect x="615" y="155" width="275" height="82" rx="12" fill="#fff0e8"/><text x="635" y="185" font-family="sans-serif" font-size="16" font-weight="700">区間12　漏水</text><text x="635" y="212" font-family="sans-serif" font-size="13" fill="#66705f">補修担当未定</text><rect x="615" y="251" width="275" height="82" rx="12" fill="#fff8df"/><text x="635" y="281" font-family="sans-serif" font-size="16" font-weight="700">区間08　泥上げ</text><text x="635" y="308" font-family="sans-serif" font-size="13" fill="#66705f">参加 6 / 必要 8</text><rect x="615" y="347" width="275" height="82" rx="12" fill="#edf4eb"/><text x="635" y="377" font-family="sans-serif" font-size="16" font-weight="700">区間03　点検済み</text><text x="635" y="404" font-family="sans-serif" font-size="13" fill="#66705f">異常なし</text></svg>
