<svg xmlns="http://www.w3.org/2000/svg" viewBox="0 0 960 540" role="img" aria-labelledby="t d"><title id="t">農業用水路の補修詳細画面</title><desc id="d">区間写真、作業参加者、必要道具、補修履歴を表示する画面</desc><rect width="960" height="540" fill="#eef2e9"/><rect x="230" y="24" width="500" height="492" rx="32" fill="#fffdf9" stroke="#2f4935" stroke-width="3"/><rect x="230" y="24" width="500" height="58" rx="30" fill="#2f4935"/><text x="264" y="60" font-family="sans-serif" font-size="19" font-weight="700" fill="#fff">区間12 / 漏水対応</text><rect x="266" y="106" width="190" height="120" rx="12" fill="#dfe8da"/><path d="M280 185 C330 140 390 215 440 160" stroke="#77a1b4" stroke-width="17" fill="none"/><text x="480" y="128" font-family="sans-serif" font-size="14" fill="#66705f">作業日</text><text x="480" y="154" font-family="sans-serif" font-size="17" font-weight="700">6月29日 8:00</text><text x="480" y="186" font-family="sans-serif" font-size="14" fill="#66705f">参加</text><text x="480" y="212" font-family="sans-serif" font-size="17" font-weight="700">6名 / 必要8名</text><text x="266" y="266" font-family="sans-serif" font-size="18" font-weight="700">必要な道具</text><rect x="266" y="282" width="110" height="34" rx="17" fill="#e4eadf"/><text x="321" y="304" text-anchor="middle" font-family="sans-serif" font-size="13">土のう 20</text><rect x="388" y="282" width="110" height="34" rx="17" fill="#e4eadf"/><text x="443" y="304" text-anchor="middle" font-family="sans-serif" font-size="13">スコップ 4</text><text x="266" y="356" font-family="sans-serif" font-size="18" font-weight="700">履歴</text><text x="286" y="392" font-family="sans-serif" font-size="14">5/30 漏水を発見・写真登録</text><text x="286" y="424" font-family="sans-serif" font-size="14">6/02 応急処置・再補修が必要</text><rect x="266" y="458" width="428" height="42" rx="12" fill="#2f4935"/><text x="480" y="485" text-anchor="middle" font-family="sans-serif" font-size="15" font-weight="700" fill="#fff">参加可否を更新する</text></svg>
