<svg xmlns="http://www.w3.org/2000/svg" width="960" height="600" viewBox="0 0 960 600" role="img" aria-labelledby="t d"><title id="t">遺失物一覧画面</title><desc id="d">会場の拾得物を状態と期限で確認する画面</desc><rect width="960" height="600" fill="#eef2f6"/><rect x="210" y="35" width="540" height="530" rx="30" fill="#fff" stroke="#172033" stroke-width="5"/><rect x="235" y="60" width="490" height="62" rx="16" fill="#172033"/><text x="265" y="99" font-family="sans-serif" font-size="24" fill="#fff">Lost Desk · 港ホール</text><text x="250" y="158" font-family="sans-serif" font-size="18" fill="#172033">今日 12件</text><rect x="250" y="175" width="130" height="36" rx="18" fill="#f8d477"/><text x="275" y="199" font-family="sans-serif" font-size="15">未照合 5</text><rect x="390" y="175" width="145" height="36" rx="18" fill="#a8ddd1"/><text x="410" y="199" font-family="sans-serif" font-size="15">返還候補 3</text><rect x="545" y="175" width="160" height="36" rx="18" fill="#d8c6ef"/><text x="565" y="199" font-family="sans-serif" font-size="15">提出待ち 4</text><g font-family="sans-serif"><rect x="250" y="235" width="455" height="78" rx="14" fill="#f7f8fa"/><text x="270" y="264" font-size="20">黒い折り畳み傘</text><text x="270" y="291" font-size="15" fill="#596273">2F西 · 棚 B-12 · 18:30まで確認</text><circle cx="675" cy="274" r="11" fill="#f4b942"/><rect x="250" y="327" width="455" height="78" rx="14" fill="#f7f8fa"/><text x="270" y="356" font-size="20">青いカードケース</text><text x="270" y="383" font-size="15" fill="#596273">受付前 · 金庫 S-03 · 本人確認待ち</text><circle cx="675" cy="366" r="11" fill="#41a88b"/><rect x="250" y="419" width="455" height="78" rx="14" fill="#f7f8fa"/><text x="270" y="448" font-size="20">白い充電器</text><text x="270" y="475" font-size="15" fill="#596273">会議室A · 棚 A-08 · 警察提出予定</text><circle cx="675" cy="458" r="11" fill="#8a67b6"/></g><rect x="650" y="510" width="55" height="38" rx="12" fill="#1967d2"/><text x="669" y="536" font-family="sans-serif" font-size="26" fill="#fff">＋</text></svg>
