<svg xmlns="http://www.w3.org/2000/svg" viewBox="0 0 1200 675" role="img" aria-labelledby="title desc">
<title id="title">要点の確認点</title><desc id="desc">派遣先、派遣元、派遣スタッフの三者が、AIの利用範囲、検品責任、教育コストを同じ前提で見られる 見積書にすることが重要です</desc>
<rect width="1200" height="675" fill="#fff"/><rect x="0.5" y="0.5" width="1199" height="674" fill="none" stroke="#111" stroke-width="1"/>
<text x="600" y="72" text-anchor="middle" font-size="24" letter-spacing="8" font-family="Arial, sans-serif" fill="#687386">CHECKPOINTS</text>
<text x="86" y="145" font-size="42" font-family="Arial, sans-serif" font-weight="700" fill="#111">要点の確認点</text>
<g transform="translate(110,335)"><circle cx="0" cy="-7" r="6" fill="#111"/><text x="22" y="0" font-size="23" font-family="Arial, sans-serif" fill="#111">厚生労働省: 労働者派遣事業</text></g>
<g transform="translate(110,399)"><circle cx="0" cy="-7" r="6" fill="#111"/><text x="22" y="0" font-size="23" font-family="Arial, sans-serif" fill="#111">厚生労働省: 派遣会社のマージン率等について</text></g>
<g transform="translate(110,463)"><circle cx="0" cy="-7" r="6" fill="#111"/><text x="22" y="0" font-size="23" font-family="Arial, sans-serif" fill="#111">経済産業省: AI事業者ガイドライン</text></g>
<circle cx="745" cy="288" r="150" fill="#f1f1f1"/><path d="M650 320c52-118 152-118 204 0" fill="none" stroke="#111" stroke-width="6"/><rect x="610" y="370" width="292" height="18" fill="#111"/><rect x="960" y="170" width="80" height="290" fill="none" stroke="#111" stroke-width="2"/><path d="M982 220h36M982 280h36M982 340h36M982 400h36" stroke="#111" stroke-width="3"/>
<text x="600" y="604" text-anchor="middle" font-size="25" font-family="Arial, sans-serif" fill="#333">派遣先、派遣元、派遣スタッフの三者が、AIの利用範囲、検品責任、教育コストを同じ前…</text>
</svg>
