<svg xmlns="http://www.w3.org/2000/svg" viewBox="0 0 1200 675" role="img" aria-labelledby="title desc">
<title id="title">Mapbox SDKで高速道路など特殊な表示を実装する方法の全体像</title><desc id="desc">Mapboxで高速道路や業務道路のような特殊な表示をしたいときは、 既存の地図そのものを書き換えるというより、 Maps SDKのスタイル機能で独自レイヤーを重ねる という考え方が基本になります</desc>
<rect width="1200" height="675" fill="#fff"/><rect x="0.5" y="0.5" width="1199" height="674" fill="none" stroke="#111" stroke-width="1"/>
<text x="600" y="72" text-anchor="middle" font-size="24" letter-spacing="8" font-family="Arial, sans-serif" fill="#687386">CONTEXT</text>
<text x="86" y="145" font-size="42" font-family="Arial, sans-serif" font-weight="700" fill="#111">Mapbox SDKで高速道路など特殊な</text>
<text x="86" y="210.10000000000002" font-size="42" font-family="Arial, sans-serif" font-weight="700" fill="#111">表示を実装する方法の全体像</text>
<g transform="translate(110,335)"><circle cx="0" cy="-7" r="6" fill="#111"/><text x="22" y="0" font-size="23" font-family="Arial, sans-serif" fill="#111">まず結論</text></g>
<g transform="translate(110,399)"><circle cx="0" cy="-7" r="6" fill="#111"/><text x="22" y="0" font-size="23" font-family="Arial, sans-serif" fill="#111">実装手段の使い分け</text></g>
<g transform="translate(110,463)"><circle cx="0" cy="-7" r="6" fill="#111"/><text x="22" y="0" font-size="23" font-family="Arial, sans-serif" fill="#111">高速道路表示でよくあるパターン</text></g>
<circle cx="820" cy="305" r="125" fill="#f0f3f7" stroke="#111" stroke-width="2"/><circle cx="820" cy="305" r="47" fill="#111"/><path d="M690 305H520M950 305h110M820 175V96M820 435v88" stroke="#111" stroke-width="2"/><rect x="518" y="243" width="150" height="124" fill="#fff" stroke="#111"/><rect x="972" y="250" width="118" height="98" fill="#fff" stroke="#111"/><rect x="750" y="78" width="140" height="72" fill="#fff" stroke="#111"/><rect x="753" y="462" width="134" height="72" fill="#fff" stroke="#111"/>
<text x="600" y="604" text-anchor="middle" font-size="25" font-family="Arial, sans-serif" fill="#333">Mapboxで高速道路や業務道路のような特殊な表示をしたいときは、 既存の地図その…</text>
</svg>
