<svg xmlns="http://www.w3.org/2000/svg" viewBox="0 0 1200 720">
  <rect width="1200" height="720" fill="#fcfaf6"/>
  <rect x="40" y="40" width="1120" height="640" rx="28" fill="#fff8ef" stroke="#d4c8b8" stroke-width="4"/>
  <rect x="120" y="120" width="960" height="470" rx="22" fill="#efe6da"/>
  <path d="M180 470 C320 420 430 340 580 300 C720 265 860 250 1010 210" fill="none" stroke="#c2410c" stroke-width="28" stroke-linecap="round"/>
  <path d="M180 470 C320 420 430 340 580 300 C720 265 860 250 1010 210" fill="none" stroke="#fb923c" stroke-width="12" stroke-linecap="round"/>
  <circle cx="420" cy="350" r="18" fill="#9a3412"/>
  <circle cx="710" cy="275" r="18" fill="#9a3412"/>
  <rect x="150" y="610" width="220" height="40" rx="12" fill="#f6d7c6"/><text x="260" y="637" text-anchor="middle" font-family="Arial, sans-serif" font-size="22" fill="#241f1a">Base map</text>
  <rect x="490" y="610" width="220" height="40" rx="12" fill="#f6d7c6"/><text x="600" y="637" text-anchor="middle" font-family="Arial, sans-serif" font-size="22" fill="#241f1a">Custom source</text>
  <rect x="830" y="610" width="220" height="40" rx="12" fill="#f6d7c6"/><text x="940" y="637" text-anchor="middle" font-family="Arial, sans-serif" font-size="22" fill="#241f1a">Style layers</text>
</svg>
