<svg xmlns="http://www.w3.org/2000/svg" width="900" height="560" viewBox="0 0 900 560" role="img" aria-labelledby="t d"><title id="t">腕時計からくりの棚</title><desc id="d">Apple Watchで収集した機械玩具を選ぶ画面</desc><rect width="900" height="560" fill="#15211d"/><rect x="270" y="30" width="360" height="500" rx="86" fill="#f6f0df" stroke="#b78b42" stroke-width="6"/><text x="342" y="92" font-size="25" font-family="sans-serif" fill="#25332b">腕時計からくり</text><circle cx="370" cy="190" r="62" fill="#d9a441"/><circle cx="370" cy="190" r="27" fill="#f6f0df"/><path d="M370 119v142M299 190h142M320 140l100 100M420 140L320 240" stroke="#25332b" stroke-width="9"/><circle cx="530" cy="190" r="58" fill="#9db8aa"/><path d="M530 143v94M483 190h94" stroke="#25332b" stroke-width="12"/><text x="315" y="300" font-size="18" font-family="sans-serif">今日の機構：カム鳥</text><rect x="315" y="330" width="270" height="20" rx="10" fill="#d6d1c5"/><rect x="315" y="330" width="175" height="20" rx="10" fill="#d84a2b"/><text x="315" y="390" font-size="16" font-family="sans-serif">棚 12 / 24　歯車 38</text><rect x="330" y="420" width="240" height="58" rx="28" fill="#244f40"/><text x="384" y="456" font-size="19" font-family="sans-serif" fill="#fff">巻きに行く</text><circle cx="648" cy="280" r="18" fill="#b78b42"/><rect x="638" y="238" width="20" height="84" rx="8" fill="#b78b42"/></svg>
