<svg xmlns="http://www.w3.org/2000/svg" viewBox="0 0 1200 675" role="img" aria-labelledby="title desc">
<title id="title">結論の確認点</title><desc id="desc">このテーマは、ごみ処理制度そのものではなく、 高齢世帯の家具・寝具・小型収納などの搬出依頼と完了記録 に切ると、生活の困りごとに近い小規模サービスとして成立しやすいです</desc>
<rect width="1200" height="675" fill="#fff"/><rect x="0.5" y="0.5" width="1199" height="674" fill="none" stroke="#111" stroke-width="1"/>
<text x="600" y="72" text-anchor="middle" font-size="24" letter-spacing="8" font-family="Arial, sans-serif" fill="#687386">CHECKPOINTS</text>
<text x="86" y="145" font-size="42" font-family="Arial, sans-serif" font-weight="700" fill="#111">結論の確認点</text>
<g transform="translate(110,335)"><circle cx="0" cy="-7" r="6" fill="#111"/><text x="22" y="0" font-size="23" font-family="Arial, sans-serif" fill="#111">自治体の収集ルール、マンション共用部ルール、立ち会…</text></g>
<g transform="translate(110,399)"><circle cx="0" cy="-7" r="6" fill="#111"/><text x="22" y="0" font-size="23" font-family="Arial, sans-serif" fill="#111">個人宅内の写真は最小限にし、家族共有範囲を明確にす…</text></g>
<g transform="translate(110,463)"><circle cx="0" cy="-7" r="6" fill="#111"/><text x="22" y="0" font-size="23" font-family="Arial, sans-serif" fill="#111">環境省: 廃棄物・リサイクル対策</text></g>
<circle cx="745" cy="288" r="150" fill="#f1f1f1"/><path d="M650 320c52-118 152-118 204 0" fill="none" stroke="#111" stroke-width="6"/><rect x="610" y="370" width="292" height="18" fill="#111"/><rect x="960" y="170" width="80" height="290" fill="none" stroke="#111" stroke-width="2"/><path d="M982 220h36M982 280h36M982 340h36M982 400h36" stroke="#111" stroke-width="3"/>
<text x="600" y="604" text-anchor="middle" font-size="25" font-family="Arial, sans-serif" fill="#333">このテーマは、ごみ処理制度そのものではなく、 高齢世帯の家具・寝具・小型収納などの…</text>
</svg>
