<svg xmlns="http://www.w3.org/2000/svg" viewBox="0 0 1600 900" role="img" aria-labelledby="title desc">
<title id="title">Swift・Flutter・Expoの使い分け</title><desc id="desc">軽い地図はExpo、深いナビはSwift/Kotlin、中間解としてFlutterを検討する。</desc>
<defs><filter id="shadow" x="-10%" y="-10%" width="120%" height="120%"><feDropShadow dx="0" dy="10" stdDeviation="18" flood-color="#c9d5e7" flood-opacity="0.45"/></filter></defs>
<rect width="1600" height="900" fill="#fbfcfe"/><rect x="8" y="8" width="1584" height="884" fill="none" stroke="#0f1b2d" stroke-width="2"/>
<text x="800" y="70" text-anchor="middle" font-size="24" letter-spacing="10" font-family="Arial, sans-serif" font-weight="700" fill="#667996">PLATFORM</text>
<text x="800" y="132" text-anchor="middle" font-size="50" font-family="Arial, sans-serif" font-weight="700" fill="#0f1b2d">Swift・Flutter・Expoの使い分け</text>
<text x="800" y="184" text-anchor="middle" font-size="25" font-family="Arial, sans-serif" fill="#566981">同じMapboxでも、優先するものによって選ぶ土台が変わる</text>

<g filter="url(#shadow)">
  <rect x="110" y="300" width="390" height="330" rx="22" fill="#fff" stroke="#c5d1df"/>
  <rect x="605" y="250" width="390" height="430" rx="22" fill="#fff" stroke="#2f6fcb" stroke-width="3"/>
  <rect x="1100" y="300" width="390" height="330" rx="22" fill="#fff" stroke="#c5d1df"/>
</g>
<text x="305" y="365" text-anchor="middle" font-size="32" font-family="Arial, sans-serif" font-weight="700" fill="#0f1b2d">Expo / RN</text>
<text x="800" y="320" text-anchor="middle" font-size="32" font-family="Arial, sans-serif" font-weight="700" fill="#0f1b2d">Flutter</text>
<text x="1295" y="365" text-anchor="middle" font-size="32" font-family="Arial, sans-serif" font-weight="700" fill="#0f1b2d">Swift / Kotlin</text>
<g transform="translate(160,440)"><circle cx="0" cy="-7" r="5" fill="#0f3f89"/><text x="20" y="0" font-size="22" font-family="Arial, sans-serif" fill="#10213b">JS中心で開発</text></g>
<g transform="translate(160,490)"><circle cx="0" cy="-7" r="5" fill="#0f3f89"/><text x="20" y="0" font-size="22" font-family="Arial, sans-serif" fill="#10213b">dev buildを許容</text></g>
<g transform="translate(655,395)"><circle cx="0" cy="-7" r="5" fill="#0f3f89"/><text x="20" y="0" font-size="22" font-family="Arial, sans-serif" fill="#10213b">クロスプラットフォーム</text></g>
<g transform="translate(655,445)"><circle cx="0" cy="-7" r="5" fill="#0f3f89"/><text x="20" y="0" font-size="22" font-family="Arial, sans-serif" fill="#10213b">Mapboxを深く使う</text></g>
<g transform="translate(655,495)"><circle cx="0" cy="-7" r="5" fill="#0f3f89"/><text x="20" y="0" font-size="22" font-family="Arial, sans-serif" fill="#10213b">中間解</text></g>
<g transform="translate(1150,440)"><circle cx="0" cy="-7" r="5" fill="#0f3f89"/><text x="20" y="0" font-size="22" font-family="Arial, sans-serif" fill="#10213b">ナビ品質最優先</text></g>
<g transform="translate(1150,490)"><circle cx="0" cy="-7" r="5" fill="#0f3f89"/><text x="20" y="0" font-size="22" font-family="Arial, sans-serif" fill="#10213b">公式SDKに近い</text></g>
<path d="M500 465h105M995 465h105" stroke="#2f6fcb" stroke-width="5"/>
<text x="800" y="745" text-anchor="middle" font-size="25" font-family="Arial, sans-serif" fill="#10213b">車載・業務ナビへ近づくほど、ネイティブSDKに近い選択が有利になる</text>

<text x="800" y="850" text-anchor="middle" font-size="25" font-family="Arial, sans-serif" fill="#566981">軽い地図はExpo、深いナビはSwift/Kotlin、中間解としてFlutterを検討する。</text>
</svg>
