<svg xmlns="http://www.w3.org/2000/svg" width="900" height="560" viewBox="0 0 900 560" role="img" aria-labelledby="t d"><title id="t">岩塊と標本箱</title><desc id="d">今日の岩塊と発掘済み標本の一覧</desc><rect width="900" height="560" fill="#d9c7aa"/><rect x="210" y="28" width="480" height="504" rx="38" fill="#fffaf0"/><text x="250" y="82" font-size="28" font-family="sans-serif" fill="#43382d">Table Fossil</text><text x="250" y="116" font-size="16" font-family="sans-serif">今日の岩塊</text><rect x="250" y="140" width="400" height="142" rx="20" fill="#b9875b"/><path d="M305 242 Q275 185 330 164 Q392 125 470 164 Q550 150 600 218 Q575 270 500 256 Z" fill="#79583f"/><path d="M407 202 q35 -40 68 0 q-30 44 -68 0" fill="none" stroke="#e5c995" stroke-width="10"/><text x="274" y="268" font-size="15" font-family="sans-serif" fill="#fff">発掘 42%　つづきから</text><text x="250" y="330" font-size="18" font-family="sans-serif">標本箱</text><rect x="250" y="352" width="118" height="118" rx="15" fill="#eee2c8"/><path d="M284 414 q24 -45 50 0 q-22 34 -50 0" fill="none" stroke="#7a6548" stroke-width="8"/><rect x="390" y="352" width="118" height="118" rx="15" fill="#d9e1d0"/><path d="M420 430 l30 -56 l28 58" fill="none" stroke="#607052" stroke-width="8"/><rect x="530" y="352" width="118" height="118" rx="15" fill="#e5d8d1"/><path d="M555 405 q36 -36 68 5 q-30 25 -68 -5" fill="none" stroke="#8c6759" stroke-width="8"/></svg>
