<svg xmlns="http://www.w3.org/2000/svg" width="900" height="560" viewBox="0 0 900 560" role="img" aria-labelledby="t d"><title id="t">化石発掘画面</title><desc id="d">AR岩塊を指で削り次の操作を選ぶ画面</desc><rect width="900" height="560" fill="#c9b694"/><rect x="210" y="28" width="480" height="504" rx="38" fill="#e9e1d2"/><text x="250" y="80" font-size="23" font-family="sans-serif">Layer 03　発掘 42%</text><ellipse cx="450" cy="310" rx="178" ry="72" fill="#9a815f" opacity=".45"/><path d="M302 340 Q270 225 345 174 Q455 112 572 186 Q644 250 588 356 Q446 404 302 340" fill="#79583f"/><path d="M380 284 q58 -85 126 4 q-55 76 -126 -4" fill="none" stroke="#e5c995" stroke-width="18"/><circle cx="526" cy="235" r="22" fill="#d4b37c"/><path d="M526 235 l48 -45" stroke="#fff" stroke-width="8" stroke-linecap="round"/><text x="250" y="434" font-size="17" font-family="sans-serif">硬い層 · 軽く短く削る</text><rect x="250" y="458" width="166" height="46" rx="12" fill="#5f4a35"/><text x="290" y="488" font-size="16" font-family="sans-serif" fill="#fff">30秒掘る</text><rect x="438" y="458" width="150" height="46" rx="12" fill="#fff"/><text x="473" y="488" font-size="16" font-family="sans-serif">観察する</text></svg>
