<svg xmlns="http://www.w3.org/2000/svg" viewBox="0 0 1200 675" role="img" aria-labelledby="title desc">
<title id="title">実画像や独自イラストを出したいときの構成の整理</title><desc id="desc">写実画像は見栄えは上がりますが、画像整備、地域差分、分岐パターン管理が重くなります</desc>
<rect width="1200" height="675" fill="#fff"/><rect x="0.5" y="0.5" width="1199" height="674" fill="none" stroke="#111" stroke-width="1"/>
<text x="600" y="72" text-anchor="middle" font-size="24" letter-spacing="8" font-family="Arial, sans-serif" fill="#687386">STRUCTURE</text>
<text x="86" y="145" font-size="42" font-family="Arial, sans-serif" font-weight="700" fill="#111">実画像や独自イラストを出したいときの構成の整</text>
<text x="86" y="210.10000000000002" font-size="42" font-family="Arial, sans-serif" font-weight="700" fill="#111">理</text>
<g transform="translate(110,335)"><circle cx="0" cy="-7" r="6" fill="#111"/><text x="22" y="0" font-size="23" font-family="Arial, sans-serif" fill="#111">Question Note Mapboxで実画像や…</text></g>
<g transform="translate(110,399)"><circle cx="0" cy="-7" r="6" fill="#111"/><text x="22" y="0" font-size="23" font-family="Arial, sans-serif" fill="#111">出口番号や道路名を示す primary / sec…</text></g>
<g transform="translate(110,463)"><circle cx="0" cy="-7" r="6" fill="#111"/><text x="22" y="0" font-size="23" font-family="Arial, sans-serif" fill="#111">lane guidance</text></g>
<rect x="602" y="190" width="430" height="230" fill="#f7f7f7" stroke="#111" stroke-width="2"/><path d="M642 245h350M642 302h250M642 359h310" stroke="#111" stroke-width="4"/><circle cx="495" cy="225" r="82" fill="#111"/><circle cx="495" cy="395" r="52" fill="none" stroke="#111" stroke-width="3"/><path d="M548 225h72M547 395h72" stroke="#111" stroke-width="2"/>
<text x="600" y="604" text-anchor="middle" font-size="25" font-family="Arial, sans-serif" fill="#333">写実画像は見栄えは上がりますが、画像整備、地域差分、分岐パターン管理が重くなります</text>
</svg>
