<svg xmlns="http://www.w3.org/2000/svg" width="960" height="600" viewBox="0 0 960 600" role="img" aria-labelledby="t d"><title id="t">手のひら石庭一覧画面</title><desc id="d">今日の小石セットと過去の完成形を示す画面</desc><rect width="960" height="600" fill="#eee9df"/><rect x="210" y="35" width="540" height="530" rx="30" fill="#fbfaf6" stroke="#39382f" stroke-width="5"/><text x="250" y="88" font-family="serif" font-size="27" fill="#39382f">手のひら石庭</text><text x="250" y="117" font-family="sans-serif" font-size="14" fill="#737064">今日の三石 · 6月19日</text><rect x="250" y="145" width="460" height="210" rx="22" fill="#d9e3df"/><ellipse cx="480" cy="315" rx="150" ry="18" fill="#a7b5af"/><path d="M420 290 Q450 250 490 287 Q477 316 420 290" fill="#6c7773"/><path d="M455 255 Q485 210 520 250 Q500 280 455 255" fill="#9b8e7a"/><path d="M485 215 Q505 180 535 211 Q520 238 485 215" fill="#c0a16b"/><rect x="370" y="300" width="220" height="50" rx="25" fill="#fff" fill-opacity=".92"/><text x="411" y="331" font-family="sans-serif" font-size="17" fill="#39382f">30秒だけ遊ぶ</text><text x="250" y="395" font-family="sans-serif" font-size="18" fill="#39382f">最近の石棚</text><g><rect x="250" y="415" width="135" height="100" rx="15" fill="#e8e2d7"/><circle cx="317" cy="470" r="24" fill="#7f887f"/><rect x="397" y="415" width="135" height="100" rx="15" fill="#e8e2d7"/><ellipse cx="465" cy="476" rx="30" ry="17" fill="#a08870"/><circle cx="465" cy="448" r="17" fill="#75827e"/><rect x="544" y="415" width="166" height="100" rx="15" fill="#e8e2d7"/><text x="575" y="468" font-family="sans-serif" font-size="15" fill="#737064">今週 4庭</text><text x="575" y="492" font-family="sans-serif" font-size="13" fill="#737064">最長 6.2秒</text></g></svg>
