<svg xmlns="http://www.w3.org/2000/svg" width="960" height="600" viewBox="0 0 960 600" role="img" aria-labelledby="t d"><title id="t">手のひら石庭操作画面</title><desc id="d">端末の傾き、接触の触覚、安定履歴、次の一石を示す画面</desc><rect width="960" height="600" fill="#eee9df"/><rect x="210" y="35" width="540" height="530" rx="30" fill="#fbfaf6" stroke="#39382f" stroke-width="5"/><text x="250" y="85" font-family="sans-serif" font-size="17" fill="#737064">× 今日の三石</text><text x="620" y="85" font-family="sans-serif" font-size="16" fill="#737064">残り 18秒</text><rect x="250" y="115" width="460" height="285" rx="22" fill="#d9e3df"/><line x1="285" y1="360" x2="675" y2="340" stroke="#66716c" stroke-width="4"/><path d="M405 320 Q445 268 493 315 Q470 350 405 320" fill="#6c7773"/><path d="M452 280 Q488 230 528 274 Q505 307 452 280" fill="#9b8e7a"/><path d="M500 242 Q530 205 560 238 Q543 266 500 242" fill="#c0a16b"/><path d="M300 160 L330 160 L315 185 Z" fill="#4b766c"/><text x="340" y="176" font-family="sans-serif" font-size="15" fill="#4b766c">右へ 3°</text><rect x="270" y="365" width="160" height="25" rx="12" fill="#fff" fill-opacity=".8"/><rect x="270" y="365" width="105" height="25" rx="12" fill="#6b9b8e"/><text x="445" y="384" font-family="sans-serif" font-size="14" fill="#4d5c57">安定 2.1 / 3秒</text><g font-family="sans-serif" fill="#39382f"><text x="250" y="438" font-size="18">この庭の履歴</text><text x="270" y="470" font-size="15">所有者: 自分 · 再挑戦 2回</text><text x="270" y="500" font-size="15">接触: 3回 · 最長安定 2.1秒</text></g><rect x="530" y="448" width="180" height="62" rx="18" fill="#536f66"/><text x="567" y="486" font-family="sans-serif" font-size="17" fill="#fff">次の一石へ</text><text x="250" y="542" font-family="sans-serif" font-size="13" fill="#737064">着席・静止して遊んでください。触覚は設定で無効化できます。</text></svg>
