<svg xmlns="http://www.w3.org/2000/svg" viewBox="0 0 960 540" role="img" aria-labelledby="t d"><title id="t">通学路危険箇所の詳細画面</title><desc id="d">地点写真、対策履歴、担当機関、再確認を更新する画面</desc><rect width="960" height="540" fill="#f3efe7"/><rect x="230" y="24" width="500" height="492" rx="32" fill="#fffdf9" stroke="#241f1a" stroke-width="3"/><rect x="230" y="24" width="500" height="58" rx="30" fill="#241f1a"/><text x="264" y="60" font-family="sans-serif" font-size="19" font-weight="700" fill="#fff">危険箇所詳細</text><text x="266" y="122" font-family="sans-serif" font-size="24" font-weight="700" fill="#241f1a">交差点A</text><rect x="600" y="98" width="96" height="30" rx="15" fill="#f6d7c6"/><text x="648" y="119" text-anchor="middle" font-family="sans-serif" font-size="13" fill="#9a3412">期限超過</text><rect x="266" y="148" width="190" height="118" rx="12" fill="#e7dfd3"/><path d="M280 240 L350 175 L440 240" stroke="#9b8d7c" stroke-width="6" fill="none"/><text x="480" y="172" font-family="sans-serif" font-size="14" fill="#6a5f55">担当機関</text><text x="480" y="198" font-family="sans-serif" font-size="17" font-weight="700" fill="#241f1a">道路管理課</text><text x="480" y="230" font-family="sans-serif" font-size="14" fill="#6a5f55">対策期限</text><text x="480" y="255" font-family="sans-serif" font-size="17" font-weight="700" fill="#241f1a">6月20日</text><text x="266" y="306" font-family="sans-serif" font-size="18" font-weight="700" fill="#241f1a">対策履歴</text><line x1="286" y1="334" x2="286" y2="410" stroke="#d4c8b8" stroke-width="3"/><circle cx="286" cy="344" r="7" fill="#9a3412"/><text x="308" y="350" font-family="sans-serif" font-size="14">5/12 合同点検・仮設ポール</text><circle cx="286" cy="386" r="7" fill="#d69a32"/><text x="308" y="392" font-family="sans-serif" font-size="14">6/20 恒久対策の回答待ち</text><rect x="266" y="446" width="428" height="42" rx="12" fill="#9a3412"/><text x="480" y="473" text-anchor="middle" font-family="sans-serif" font-size="15" font-weight="700" fill="#fff">再確認を記録する</text></svg>
