<svg xmlns="http://www.w3.org/2000/svg" viewBox="0 0 960 540" role="img" aria-labelledby="t d"><title id="t">通学路危険箇所ダッシュボード</title><desc id="d">地図と案件一覧で危険度、担当機関、期限を確認する画面</desc><rect width="960" height="540" fill="#f3efe7"/><rect x="40" y="30" width="880" height="480" rx="24" fill="#fffdf9" stroke="#c8bbab"/><rect x="40" y="30" width="880" height="62" rx="24" fill="#241f1a"/><text x="70" y="69" font-family="sans-serif" font-size="22" font-weight="700" fill="#fff">通学路安全フォロー</text><text x="70" y="130" font-family="sans-serif" font-size="25" font-weight="700" fill="#241f1a">危険箇所一覧</text><rect x="70" y="155" width="500" height="310" rx="16" fill="#eee7dc"/><path d="M95 205 C210 160 280 270 390 220 S510 300 545 190" stroke="#b8aa99" stroke-width="16" fill="none"/><circle cx="210" cy="205" r="14" fill="#9a3412"/><circle cx="390" cy="220" r="14" fill="#d69a32"/><circle cx="510" cy="260" r="14" fill="#9a3412"/><rect x="595" y="155" width="295" height="74" rx="12" fill="#fff0e8"/><text x="615" y="184" font-family="sans-serif" font-size="16" font-weight="700" fill="#241f1a">交差点A　期限超過</text><text x="615" y="210" font-family="sans-serif" font-size="13" fill="#6a5f55">道路管理者 / 恒久対策待ち</text><rect x="595" y="243" width="295" height="74" rx="12" fill="#fff8df"/><text x="615" y="272" font-family="sans-serif" font-size="16" font-weight="700" fill="#241f1a">市道B　再確認予定</text><text x="615" y="298" font-family="sans-serif" font-size="13" fill="#6a5f55">学校 / 6月28日</text><rect x="595" y="331" width="295" height="74" rx="12" fill="#edf4eb"/><text x="615" y="360" font-family="sans-serif" font-size="16" font-weight="700" fill="#241f1a">横断歩道C　完了</text><text x="615" y="386" font-family="sans-serif" font-size="13" fill="#6a5f55">警察 / 写真確認済み</text></svg>
