<svg xmlns="http://www.w3.org/2000/svg" width="960" height="600" viewBox="0 0 960 600" role="img" aria-labelledby="t d"><title id="t">鳥衝突窓面詳細画面</title><desc id="d">窓面の発見履歴、対策担当、施工後の次回観察を示す画面</desc><rect width="960" height="600" fill="#e9f1ed"/><rect x="205" y="35" width="550" height="530" rx="30" fill="#fff" stroke="#18392f" stroke-width="5"/><text x="245" y="86" font-family="sans-serif" font-size="17" fill="#5c6c65">← 図書館 2F</text><text x="245" y="125" font-family="sans-serif" font-size="28" fill="#18392f">窓面 W-18</text><rect x="245" y="145" width="210" height="140" rx="16" fill="#cfe3e7"/><path d="M270 250 L325 165 L380 250" fill="#88b0bc"/><path d="M330 232 Q370 190 420 235" fill="none" stroke="#fff" stroke-width="5"/><g font-family="sans-serif" fill="#18392f"><text x="480" y="175" font-size="16">担当 施設課 山田</text><text x="480" y="207" font-size="16">30日発見 3件</text><text x="480" y="239" font-size="16">状態 施工案確認中</text><text x="245" y="325" font-size="19">履歴と次の確認</text><text x="270" y="358" font-size="15">6/02  発見・写真登録</text><text x="270" y="389" font-size="15">6/10  同一窓面で2件目</text><text x="270" y="420" font-size="15">6/18  外側対策案を承認依頼</text></g><line x1="258" y1="350" x2="258" y2="416" stroke="#5e9e77" stroke-width="5"/><rect x="245" y="455" width="218" height="58" rx="15" fill="#e6ece8"/><text x="283" y="491" font-family="sans-serif" font-size="17">施工内容を記録</text><rect x="478" y="455" width="232" height="58" rx="15" fill="#287a58"/><text x="511" y="491" font-family="sans-serif" font-size="17" fill="#fff">30日観察を開始</text><text x="245" y="540" font-family="sans-serif" font-size="14" fill="#795b25">次: 施工後30日と90日に再発件数を確認</text></svg>
