<svg xmlns="http://www.w3.org/2000/svg" width="960" height="600" viewBox="0 0 960 600" role="img" aria-labelledby="t d"><title id="t">鳥衝突対策一覧画面</title><desc id="d">建物と窓面ごとの発見件数と対策状態を示す画面</desc><rect width="960" height="600" fill="#e9f1ed"/><rect x="205" y="35" width="550" height="530" rx="30" fill="#fff" stroke="#18392f" stroke-width="5"/><rect x="230" y="60" width="500" height="68" rx="16" fill="#18392f"/><text x="260" y="102" font-family="sans-serif" font-size="25" fill="#fff">Window Watch · 北キャンパス</text><g font-family="sans-serif"><text x="245" y="164" font-size="18" fill="#18392f">今月の発見 7件</text><rect x="245" y="182" width="145" height="34" rx="17" fill="#f4cc72"/><text x="269" y="205" font-size="14">未確認 2</text><rect x="400" y="182" width="150" height="34" rx="17" fill="#b8dcb5"/><text x="423" y="205" font-size="14">施工待ち 3</text><rect x="560" y="182" width="150" height="34" rx="17" fill="#b8cde8"/><text x="580" y="205" font-size="14">観察中 2</text><text x="255" y="255" font-size="16" fill="#5c6c65">棟 / 窓面</text><rect x="245" y="272" width="465" height="75" rx="14" fill="#f4f7f5"/><text x="265" y="302" font-size="20">図書館 2F · W-18</text><text x="265" y="329" font-size="14" fill="#5c6c65">3件 / 30日 · 外側フィルム候補</text><circle cx="682" cy="310" r="11" fill="#e9a72b"/><rect x="245" y="361" width="465" height="75" rx="14" fill="#f4f7f5"/><text x="265" y="391" font-size="20">研究棟 1F · E-04</text><text x="265" y="418" font-size="14" fill="#5c6c65">施工済み · 30日観察 0件</text><circle cx="682" cy="399" r="11" fill="#5e9e77"/><rect x="245" y="450" width="465" height="75" rx="14" fill="#f4f7f5"/><text x="265" y="480" font-size="20">食堂 渡り廊下 · S-02</text><text x="265" y="507" font-size="14" fill="#5c6c65">現地確認を担当へ割当</text><circle cx="682" cy="488" r="11" fill="#d66b5c"/></g></svg>
