<svg xmlns="http://www.w3.org/2000/svg" width="390" height="760" viewBox="0 0 390 760" role="img" aria-labelledby="t d"><title id="t">AED点検一覧</title><desc id="d">施設内AEDの正常、要確認、期限接近を一覧するスマートフォン画面</desc><rect width="390" height="760" rx="34" fill="#eef4f1"/><rect x="18" y="18" width="354" height="724" rx="28" fill="#fff"/><text x="38" y="58" font-family="sans-serif" font-size="14" fill="#557066">西町交流館</text><text x="38" y="91" font-family="sans-serif" font-size="25" font-weight="700" fill="#173f36">AED readiness</text><rect x="38" y="112" width="314" height="78" rx="18" fill="#e5f6ec"/><text x="58" y="143" font-family="sans-serif" font-size="14" fill="#376d59">本日の点検</text><text x="58" y="174" font-family="sans-serif" font-size="28" font-weight="700" fill="#1e5948">3 / 4</text><text x="279" y="161" font-family="sans-serif" font-size="12" fill="#a04b38">1件 未確認</text><g font-family="sans-serif"><rect x="38" y="214" width="314" height="108" rx="16" fill="#f7faf8" stroke="#dce7e2"/><circle cx="62" cy="244" r="8" fill="#2aa66a"/><text x="80" y="249" font-size="17" font-weight="700" fill="#24443b">玄関 AED-01</text><text x="58" y="279" font-size="13" fill="#64766f">表示 正常 ・ 09:12 佐藤</text><text x="58" y="302" font-size="13" fill="#64766f">パッド期限 2027-03</text><rect x="38" y="338" width="314" height="126" rx="16" fill="#fff5e8" stroke="#edca96"/><circle cx="62" cy="370" r="8" fill="#ed9a2d"/><text x="80" y="375" font-size="17" font-weight="700" fill="#5f4825">体育室 AED-02</text><text x="58" y="405" font-size="13" fill="#7a6240">パッド期限まで 21日</text><text x="58" y="429" font-size="13" fill="#7a6240">担当 高橋 ・ 発注待ち</text><rect x="38" y="480" width="314" height="126" rx="16" fill="#fff0ee" stroke="#e8b3ab"/><circle cx="62" cy="512" r="8" fill="#d95d4f"/><text x="80" y="517" font-size="17" font-weight="700" fill="#63322c">事務室 AED-04</text><text x="58" y="547" font-size="13" fill="#7f514a">本日 未確認</text><text x="58" y="571" font-size="13" fill="#7f514a">担当未設定</text><rect x="238" y="625" width="114" height="48" rx="24" fill="#1d6f5a"/><text x="259" y="655" font-size="14" font-weight="700" fill="#fff">点検する</text></g><text x="114" y="713" font-family="sans-serif" font-size="12" fill="#80908a">一覧　　期限　　履歴　　設定</text></svg>
