<svg xmlns="http://www.w3.org/2000/svg" width="390" height="760" viewBox="0 0 390 760" role="img" aria-labelledby="t d"><title id="t">AED詳細と交換操作</title><desc id="d">一台のAEDの担当、点検履歴、消耗品期限、次の交換確認を示す画面</desc><rect width="390" height="760" rx="34" fill="#eef4f1"/><rect x="18" y="18" width="354" height="724" rx="28" fill="#fff"/><text x="38" y="60" font-family="sans-serif" font-size="18" fill="#173f36">‹ AED一覧</text><text x="38" y="98" font-family="sans-serif" font-size="24" font-weight="700" fill="#173f36">体育室 AED-02</text><rect x="38" y="119" width="314" height="64" rx="16" fill="#fff5e8"/><text x="58" y="146" font-family="sans-serif" font-size="13" fill="#7a6240">状態</text><text x="58" y="170" font-family="sans-serif" font-size="17" font-weight="700" fill="#9b5c18">交換品 発注待ち</text><g font-family="sans-serif"><text x="38" y="222" font-size="15" font-weight="700" fill="#334f46">機器と担当</text><text x="48" y="252" font-size="13" fill="#687a73">製造番号　A2-09418</text><text x="48" y="277" font-size="13" fill="#687a73">点検担当　高橋</text><text x="48" y="302" font-size="13" fill="#687a73">パッド期限　2026-07-10</text><text x="38" y="347" font-size="15" font-weight="700" fill="#334f46">履歴</text><line x1="54" y1="371" x2="54" y2="482" stroke="#bad0c7" stroke-width="3"/><circle cx="54" cy="382" r="7" fill="#2aa66a"/><text x="75" y="386" font-size="13" fill="#526b61">06/19 表示正常 ・ 高橋</text><circle cx="54" cy="425" r="7" fill="#ed9a2d"/><text x="75" y="429" font-size="13" fill="#526b61">06/18 期限通知 ・ 自動</text><circle cx="54" cy="468" r="7" fill="#718c82"/><text x="75" y="472" font-size="13" fill="#526b61">06/18 発注登録 ・ 佐藤</text><rect x="38" y="510" width="314" height="104" rx="16" fill="#f4f8f6"/><text x="56" y="539" font-size="14" font-weight="700" fill="#294a40">次の操作</text><text x="56" y="565" font-size="13" fill="#64766f">新品の期限とロットを確認し、</text><text x="56" y="586" font-size="13" fill="#64766f">交換後に再点検します。</text><rect x="38" y="633" width="314" height="50" rx="25" fill="#1d6f5a"/><text x="130" y="664" font-size="15" font-weight="700" fill="#fff">交換を記録する</text></g></svg>
