<svg xmlns="http://www.w3.org/2000/svg" viewBox="0 0 960 540" role="img" aria-labelledby="t d"><title id="t">外来生物対応ダッシュボード</title><desc id="d">発見地点、同定状態、防除担当、再調査期限を表示する画面</desc><rect width="960" height="540" fill="#edf1e8"/><rect x="40" y="30" width="880" height="480" rx="24" fill="#fffdf9" stroke="#bbc6b1"/><rect x="40" y="30" width="880" height="62" rx="24" fill="#344a38"/><text x="70" y="69" font-family="sans-serif" font-size="22" font-weight="700" fill="#fff">外来生物レスポンス</text><text x="70" y="130" font-family="sans-serif" font-size="25" font-weight="700" fill="#263a2a">対応案件</text><rect x="70" y="155" width="500" height="310" rx="16" fill="#e2e8dc"/><path d="M100 200 C220 150 300 290 410 220 S500 310 545 190" stroke="#a7b79d" stroke-width="14" fill="none"/><circle cx="210" cy="206" r="14" fill="#a8482b"/><circle cx="395" cy="226" r="14" fill="#d49c35"/><circle cx="510" cy="250" r="14" fill="#668257"/><rect x="595" y="155" width="295" height="74" rx="12" fill="#fff0e8"/><text x="615" y="184" font-family="sans-serif" font-size="16" font-weight="700">河川敷A　確認済み</text><text x="615" y="210" font-family="sans-serif" font-size="13" fill="#66705f">防除担当待ち</text><rect x="595" y="243" width="295" height="74" rx="12" fill="#fff8df"/><text x="615" y="272" font-family="sans-serif" font-size="16" font-weight="700">公園B　同定中</text><text x="615" y="298" font-family="sans-serif" font-size="13" fill="#66705f">追加写真を依頼</text><rect x="595" y="331" width="295" height="74" rx="12" fill="#edf4eb"/><text x="615" y="360" font-family="sans-serif" font-size="16" font-weight="700">池C　再調査</text><text x="615" y="386" font-family="sans-serif" font-size="13" fill="#66705f">検出なし 2回</text></svg>
