<svg xmlns="http://www.w3.org/2000/svg" viewBox="0 0 960 540" role="img" aria-labelledby="t d"><title id="t">外来生物案件の詳細画面</title><desc id="d">写真、同定結果、防除記録、次回調査を表示する画面</desc><rect width="960" height="540" fill="#edf1e8"/><rect x="230" y="24" width="500" height="492" rx="32" fill="#fffdf9" stroke="#344a38" stroke-width="3"/><rect x="230" y="24" width="500" height="58" rx="30" fill="#344a38"/><text x="264" y="60" font-family="sans-serif" font-size="19" font-weight="700" fill="#fff">案件 #A-021</text><text x="266" y="122" font-family="sans-serif" font-size="23" font-weight="700">河川敷A / 重点種候補</text><rect x="266" y="145" width="190" height="120" rx="12" fill="#dfe7da"/><circle cx="355" cy="200" r="38" fill="#7f9b70"/><path d="M355 162 v76 M317 200 h76" stroke="#dfe7da" stroke-width="7"/><text x="480" y="165" font-family="sans-serif" font-size="14" fill="#66705f">同定</text><text x="480" y="191" font-family="sans-serif" font-size="17" font-weight="700">専門家確認済み</text><text x="480" y="223" font-family="sans-serif" font-size="14" fill="#66705f">土地管理者</text><text x="480" y="249" font-family="sans-serif" font-size="17" font-weight="700">河川管理課</text><text x="266" y="302" font-family="sans-serif" font-size="18" font-weight="700">防除記録</text><text x="286" y="340" font-family="sans-serif" font-size="14">6/02 23株を除去・袋詰め</text><text x="286" y="372" font-family="sans-serif" font-size="14">6/04 指定方法で処分完了</text><rect x="266" y="402" width="428" height="54" rx="12" fill="#fff8df"/><text x="286" y="426" font-family="sans-serif" font-size="13" fill="#66705f">次回再調査</text><text x="286" y="447" font-family="sans-serif" font-size="16" font-weight="700">7月2日 / 担当 自然保護会</text><rect x="266" y="468" width="428" height="34" rx="10" fill="#344a38"/><text x="480" y="491" text-anchor="middle" font-family="sans-serif" font-size="14" font-weight="700" fill="#fff">再調査結果を登録</text></svg>
