<svg xmlns="http://www.w3.org/2000/svg" width="390" height="760" viewBox="0 0 390 760" role="img" aria-labelledby="t d"><title id="t">茶の間タイマー一覧</title><desc id="d">飲み物別タイマーと最近の一服記録を示す画面</desc><rect width="390" height="760" rx="34" fill="#ebe5dc"/><rect x="18" y="18" width="354" height="724" rx="28" fill="#fffaf2"/><text x="38" y="60" font-family="sans-serif" font-size="14" fill="#7d7165">14:32 ・ 午後の一服</text><text x="38" y="95" font-family="sans-serif" font-size="26" font-weight="700" fill="#3f372f">茶の間</text><rect x="38" y="120" width="314" height="166" rx="24" fill="#dce6d2"/><circle cx="96" cy="202" r="44" fill="#fffaf2"/><path d="M68 194 Q96 221 124 194" fill="none" stroke="#668064" stroke-width="7"/><path d="M124 186 Q146 188 139 207 Q134 219 122 215" fill="none" stroke="#668064" stroke-width="6"/><text x="166" y="166" font-family="sans-serif" font-size="14" fill="#60725d">煎茶</text><text x="166" y="207" font-family="sans-serif" font-size="34" font-weight="700" fill="#3f5940">1:30</text><rect x="166" y="226" width="112" height="36" rx="18" fill="#526d50"/><text x="199" y="250" font-family="sans-serif" font-size="14" font-weight="700" fill="#fff">はじめる</text><text x="38" y="327" font-family="sans-serif" font-size="15" font-weight="700" fill="#51463d">よく使う時間</text><g font-family="sans-serif"><rect x="38" y="350" width="96" height="104" rx="18" fill="#f0e6d4"/><text x="55" y="382" font-size="14" fill="#675b50">珈琲</text><text x="55" y="423" font-size="24" font-weight="700" fill="#51463d">3:00</text><rect x="147" y="350" width="96" height="104" rx="18" fill="#e5ead8"/><text x="164" y="382" font-size="14" fill="#675b50">ほうじ茶</text><text x="164" y="423" font-size="24" font-weight="700" fill="#51463d">2:00</text><rect x="256" y="350" width="96" height="104" rx="18" fill="#eadfd3"/><text x="273" y="382" font-size="14" fill="#675b50">紅茶</text><text x="273" y="423" font-size="24" font-weight="700" fill="#51463d">4:00</text><text x="38" y="501" font-size="15" font-weight="700" fill="#51463d">最近の一服</text><text x="50" y="538" font-size="13" fill="#80746a">今日 09:10　珈琲　3:10　ちょうど</text><text x="50" y="572" font-size="13" fill="#80746a">昨日 15:02　煎茶　1:20　少し薄い</text><text x="50" y="606" font-size="13" fill="#80746a">昨日 08:44　紅茶　4:00　ちょうど</text></g><text x="107" y="710" font-family="sans-serif" font-size="12" fill="#94887d">タイマー　　一服帳　　テーマ</text></svg>
