<svg xmlns="http://www.w3.org/2000/svg" width="390" height="760" viewBox="0 0 390 760" role="img" aria-labelledby="t d"><title id="t">浴場衛生管理一覧</title><desc id="d">浴槽と設備の測定、清掃、検査状態を一覧する画面</desc><rect width="390" height="760" rx="34" fill="#eaf4f7"/><rect x="18" y="18" width="354" height="724" rx="28" fill="#fff"/><text x="38" y="59" font-family="sans-serif" font-size="14" fill="#577582">朝の湯</text><text x="38" y="92" font-family="sans-serif" font-size="25" font-weight="700" fill="#17455a">衛生ダッシュボード</text><rect x="38" y="112" width="314" height="80" rx="18" fill="#e5f4f8"/><text x="57" y="143" font-family="sans-serif" font-size="13" fill="#477480">本日の完了</text><text x="57" y="175" font-family="sans-serif" font-size="28" font-weight="700" fill="#185f73">18 / 21</text><text x="260" y="162" font-family="sans-serif" font-size="12" fill="#ad4f3e">異常 1</text><g font-family="sans-serif"><rect x="38" y="215" width="314" height="112" rx="16" fill="#f7fbfc" stroke="#d5e6eb"/><text x="57" y="248" font-size="17" font-weight="700" fill="#274e5c">主浴槽</text><text x="57" y="277" font-size="13" fill="#657b84">測定 10:00　記録済み</text><text x="57" y="301" font-size="13" fill="#218368">清掃・薬注　正常</text><rect x="38" y="343" width="314" height="128" rx="16" fill="#fff0ee" stroke="#e9b6ae"/><text x="57" y="376" font-size="17" font-weight="700" fill="#65382f">露天浴槽</text><text x="57" y="405" font-size="13" fill="#82594f">測定値が施設設定範囲外</text><text x="57" y="429" font-size="13" fill="#82594f">確認担当　田中</text><rect x="250" y="436" width="82" height="26" rx="13" fill="#d86151"/><text x="267" y="454" font-size="11" fill="#fff">確認中</text><rect x="38" y="487" width="314" height="112" rx="16" fill="#fff8e8" stroke="#ead299"/><text x="57" y="520" font-size="17" font-weight="700" fill="#665023">ろ過器 B</text><text x="57" y="549" font-size="13" fill="#806d47">逆洗　17:00 予定</text><text x="57" y="573" font-size="13" fill="#806d47">担当　鈴木</text><rect x="225" y="625" width="127" height="48" rx="24" fill="#176b81"/><text x="247" y="655" font-size="14" font-weight="700" fill="#fff">記録を追加</text></g><text x="109" y="713" font-family="sans-serif" font-size="12" fill="#82949b">一覧　　設備　　検査　　帳票</text></svg>
